<?xml version="1.0" encoding="UTF-8"?><svg id="Layer_1" xmlns="http://www.w3.org/2000/svg" xmlns:xlink="http://www.w3.org/1999/xlink" viewBox="0 0 339.4 100.87"><defs><style>.cls-1{fill:url(#linear-gradient);}path{fill:#fff;}</style><linearGradient id="linear-gradient" x1="313.1" y1="1465.63" x2="332.31" y2="1484.84" gradientTransform="translate(0 1484.86) scale(1 -1)" gradientUnits="userSpaceOnUse"><stop offset="0" stop-color="#1b91a3"/><stop offset=".3" stop-color="#20a676"/><stop offset="1" stop-color="#71bf44"/></linearGradient></defs><path d="M85.44,100.68v-10.47h1.47v9.19h4.55v1.27h-6.02Z"/><path d="M94.1,89.8c.23,0,.43.07.59.2s.25.35.25.65-.08.52-.25.66-.36.2-.59.2-.43-.07-.59-.2-.24-.35-.24-.66.08-.52.24-.65.36-.2.59-.2ZM94.81,92.79v7.89h-1.44v-7.89h1.44Z"/><path d="M101.28,93.9h-1.94v6.78h-1.44v-6.78h-1.34v-.69l1.34-.44v-.54c0-.66.1-1.2.31-1.6s.5-.7.88-.88.85-.28,1.4-.28c.33,0,.63.03.91.09s.51.12.71.19l-.37,1.1c-.16-.05-.34-.1-.54-.15s-.41-.07-.64-.07c-.42,0-.72.13-.92.4s-.3.67-.3,1.21v.55h1.94v1.11h0Z"/><path d="M106.06,92.64c.69,0,1.28.15,1.77.44s.87.71,1.13,1.24.39,1.16.39,1.89v.82h-5.35c.01.84.23,1.49.65,1.94s1.01.68,1.77.68c.5,0,.95-.05,1.34-.14s.8-.24,1.22-.42v1.21c-.4.18-.79.31-1.19.4-.4.08-.87.13-1.43.13-.76,0-1.43-.15-2.01-.46s-1.02-.76-1.34-1.36-.48-1.34-.48-2.22.15-1.61.44-2.23.7-1.09,1.23-1.42,1.15-.49,1.87-.49h-.01ZM106.05,93.76c-.58,0-1.05.19-1.4.57s-.56.92-.62,1.63h3.88c0-.43-.07-.82-.21-1.15s-.34-.59-.6-.77-.62-.28-1.04-.28h-.01Z"/><path d="M111.39,99.86c0-.36.09-.62.28-.77s.41-.23.67-.23.49.08.68.23.28.41.28.77-.09.61-.28.77-.41.24-.68.24-.49-.08-.67-.24-.28-.42-.28-.77Z"/><path d="M126.09,97.86c0,.62-.15,1.15-.46,1.59s-.74.78-1.3,1.01-1.22.35-1.99.35c-.39,0-.76-.02-1.11-.06s-.68-.1-.98-.18-.57-.17-.82-.29v-1.39c.4.16.85.31,1.37.45s1.06.21,1.61.21c.48,0,.89-.07,1.21-.2s.57-.32.74-.55.25-.52.25-.86-.08-.61-.24-.84-.42-.44-.77-.63-.81-.39-1.38-.61c-.4-.14-.76-.31-1.08-.49s-.6-.39-.84-.63-.42-.52-.55-.84-.19-.69-.19-1.11c0-.58.14-1.07.43-1.48s.68-.72,1.19-.94,1.1-.33,1.78-.33c.55,0,1.07.05,1.55.16s.94.26,1.37.45l-.47,1.22c-.41-.17-.81-.3-1.22-.41s-.84-.16-1.27-.16-.75.06-1.03.18-.49.29-.64.51-.22.48-.22.78c0,.34.08.62.23.84s.39.43.72.61.76.37,1.29.58c.6.23,1.1.47,1.52.73s.74.57.96.93.33.82.33,1.37v.03Z"/><path d="M131.44,100.82c-.73,0-1.36-.15-1.9-.44s-.97-.74-1.26-1.34-.45-1.36-.45-2.27.16-1.74.48-2.34.76-1.06,1.33-1.35,1.21-.44,1.94-.44c.43,0,.83.04,1.21.13s.69.19.94.32l-.43,1.17c-.27-.1-.55-.2-.86-.28s-.6-.12-.88-.12c-.51,0-.92.11-1.26.33s-.58.55-.75.98-.25.96-.25,1.59.08,1.13.25,1.55.41.74.73.96.72.33,1.21.33c.42,0,.81-.05,1.15-.14s.65-.22.94-.37v1.27c-.28.15-.58.27-.92.34-.33.08-.74.11-1.21.11h-.01Z"/><path d="M136.45,89.8c.23,0,.43.07.59.2s.25.35.25.65-.08.52-.25.66-.36.2-.59.2-.43-.07-.59-.2-.24-.35-.24-.66.08-.52.24-.65.36-.2.59-.2ZM137.15,92.79v7.89h-1.44v-7.89h1.44Z"/><path d="M143,92.64c.69,0,1.28.15,1.77.44s.87.71,1.13,1.24.39,1.16.39,1.89v.82h-5.35c.01.84.23,1.49.65,1.94s1.01.68,1.77.68c.5,0,.95-.05,1.34-.14s.8-.24,1.22-.42v1.21c-.4.18-.79.31-1.19.4-.4.08-.87.13-1.43.13-.76,0-1.43-.15-2.01-.46s-1.02-.76-1.34-1.36-.48-1.34-.48-2.22.15-1.61.44-2.23.7-1.09,1.23-1.42,1.15-.49,1.87-.49h-.01ZM142.99,93.76c-.58,0-1.05.19-1.4.57s-.56.92-.62,1.63h3.88c0-.43-.07-.82-.21-1.15s-.34-.59-.6-.77-.62-.28-1.04-.28h-.01Z"/><path d="M152.46,92.64c.91,0,1.61.23,2.1.69s.73,1.19.73,2.2v5.14h-1.42v-4.95c0-.63-.14-1.1-.42-1.42s-.7-.48-1.27-.48c-.82,0-1.39.24-1.71.72s-.49,1.18-.49,2.1v4.02h-1.44v-7.89h1.14l.21,1.11h.08c.17-.28.38-.51.64-.69s.55-.33.86-.42.65-.14,1-.14h-.01Z"/><path d="M161.16,100.82c-.73,0-1.36-.15-1.9-.44s-.97-.74-1.26-1.34-.45-1.36-.45-2.27.16-1.74.48-2.34.76-1.06,1.33-1.35,1.21-.44,1.94-.44c.43,0,.83.04,1.21.13s.69.19.94.32l-.43,1.17c-.27-.1-.55-.2-.86-.28s-.6-.12-.88-.12c-.51,0-.92.11-1.26.33s-.58.55-.75.98-.25.96-.25,1.59.08,1.13.25,1.55.41.74.73.96.72.33,1.21.33c.42,0,.81-.05,1.15-.14s.65-.22.94-.37v1.27c-.28.15-.58.27-.92.34-.33.08-.74.11-1.21.11h-.01Z"/><path d="M168.52,92.64c.69,0,1.28.15,1.77.44s.87.71,1.13,1.24.39,1.16.39,1.89v.82h-5.35c.01.84.23,1.49.65,1.94s1.01.68,1.77.68c.5,0,.95-.05,1.34-.14s.8-.24,1.22-.42v1.21c-.4.18-.79.31-1.19.4-.4.08-.87.13-1.43.13-.76,0-1.43-.15-2.01-.46s-1.02-.76-1.34-1.36-.48-1.34-.48-2.22.15-1.61.44-2.23.7-1.09,1.23-1.42,1.15-.49,1.87-.49h-.01ZM168.51,93.76c-.58,0-1.05.19-1.4.57s-.56.92-.62,1.63h3.88c0-.43-.07-.82-.21-1.15s-.34-.59-.6-.77-.62-.28-1.04-.28h-.01Z"/><path d="M173.85,99.86c0-.36.09-.62.28-.77s.41-.23.67-.23.49.08.68.23.28.41.28.77-.09.61-.28.77-.41.24-.68.24-.49-.08-.67-.24-.28-.42-.28-.77Z"/><path d="M185.46,90.21c1.35,0,2.34.27,2.96.81s.93,1.31.93,2.3c0,.45-.07.87-.21,1.28s-.38.76-.7,1.07-.75.55-1.27.73-1.17.27-1.93.27h-1.2v4.02h-1.47v-10.47h2.89ZM185.34,91.44h-1.3v3.98h1.04c.61,0,1.11-.07,1.52-.2s.72-.35.93-.66.31-.7.31-1.19c0-.65-.2-1.13-.61-1.45s-1.04-.48-1.9-.48h.01Z"/><path d="M198.5,96.72c0,.65-.08,1.23-.25,1.74s-.42.94-.74,1.29-.71.62-1.16.8c-.45.18-.97.28-1.54.28-.53,0-1.02-.09-1.47-.28-.45-.18-.83-.45-1.16-.8s-.58-.78-.75-1.29-.26-1.09-.26-1.74c0-.86.15-1.6.44-2.21s.72-1.07,1.27-1.39,1.21-.48,1.97-.48,1.36.16,1.91.48.98.78,1.28,1.39.46,1.34.46,2.2h0ZM192.64,96.72c0,.61.08,1.13.23,1.56s.39.77.72,1.01.74.35,1.25.35.91-.12,1.24-.35.56-.57.72-1.01.23-.96.23-1.56-.08-1.12-.23-1.55-.39-.76-.71-.99-.74-.34-1.26-.34c-.75,0-1.31.25-1.66.76s-.53,1.21-.53,2.12h0Z"/><path d="M205.99,98.47c0,.51-.13.94-.38,1.29s-.61.61-1.09.79c-.48.18-1.05.26-1.72.26-.55,0-1.03-.04-1.43-.13-.4-.08-.76-.2-1.09-.36v-1.27c.35.17.75.31,1.21.44s.91.19,1.35.19c.62,0,1.06-.1,1.34-.29s.41-.46.41-.79c0-.2-.05-.37-.16-.52s-.3-.3-.58-.45-.67-.32-1.18-.52c-.5-.2-.93-.39-1.28-.59s-.63-.43-.81-.71-.28-.63-.28-1.07c0-.68.27-1.2.82-1.56s1.27-.54,2.17-.54c.48,0,.93.05,1.35.14s.83.23,1.21.4l-.47,1.11c-.34-.15-.7-.27-1.06-.37s-.73-.15-1.11-.15c-.49,0-.87.08-1.13.24s-.39.37-.39.65c0,.21.06.39.18.54s.33.28.61.42.67.3,1.16.48c.48.18.9.37,1.25.57s.62.43.81.72.29.64.29,1.08h0Z"/><path d="M213.35,98.47c0,.51-.13.94-.38,1.29s-.61.61-1.09.79c-.48.18-1.05.26-1.72.26-.55,0-1.03-.04-1.43-.13-.4-.08-.76-.2-1.09-.36v-1.27c.35.17.75.31,1.21.44s.91.19,1.35.19c.62,0,1.06-.1,1.34-.29s.41-.46.41-.79c0-.2-.05-.37-.16-.52s-.3-.3-.58-.45-.67-.32-1.18-.52c-.5-.2-.93-.39-1.28-.59s-.63-.43-.81-.71-.28-.63-.28-1.07c0-.68.27-1.2.82-1.56s1.27-.54,2.17-.54c.48,0,.93.05,1.35.14s.83.23,1.21.4l-.47,1.11c-.34-.15-.7-.27-1.06-.37s-.73-.15-1.11-.15c-.49,0-.87.08-1.13.24s-.39.37-.39.65c0,.21.06.39.18.54s.33.28.61.42.67.3,1.16.48c.48.18.9.37,1.25.57s.62.43.81.72.29.64.29,1.08h0Z"/><path d="M216.23,89.8c.23,0,.43.07.59.2s.25.35.25.65-.08.52-.25.66-.36.2-.59.2-.43-.07-.59-.2-.24-.35-.24-.66.08-.52.24-.65.36-.2.59-.2ZM216.94,92.79v7.89h-1.44v-7.89h1.44Z"/><path d="M221.13,89.54v2.73c0,.31,0,.62-.03.92s-.03.53-.05.69h.07c.21-.34.52-.64.91-.88s.9-.36,1.52-.36c.96,0,1.73.34,2.31,1.03s.87,1.7.87,3.05c0,.89-.13,1.64-.4,2.25s-.64,1.07-1.12,1.38-1.04.47-1.69.47-1.11-.11-1.5-.34c-.38-.23-.68-.5-.89-.81h-.11l-.27,1.01h-1.07v-11.14h1.45ZM223.24,93.83c-.52,0-.93.1-1.24.31s-.53.52-.66.93-.2.94-.21,1.57v.11c0,.94.15,1.65.46,2.15s.86.74,1.66.74c.66,0,1.16-.25,1.5-.76s.51-1.23.51-2.17-.17-1.67-.51-2.15-.84-.72-1.51-.72h0Z"/><path d="M229.76,89.8c.23,0,.43.07.59.2s.25.35.25.65-.08.52-.25.66-.36.2-.59.2-.43-.07-.59-.2-.24-.35-.24-.66.08-.52.24-.65.36-.2.59-.2ZM230.47,92.79v7.89h-1.44v-7.89h1.44Z"/><path d="M234.66,100.68h-1.45v-11.14h1.45v11.14Z"/><path d="M238.14,89.8c.23,0,.43.07.59.2s.25.35.25.65-.08.52-.25.66-.36.2-.59.2-.43-.07-.59-.2-.24-.35-.24-.66.08-.52.24-.65.36-.2.59-.2ZM238.84,92.79v7.89h-1.44v-7.89h1.44Z"/><path d="M244.34,99.65c.21,0,.41-.02.62-.05s.39-.08.54-.14v1.1c-.16.07-.38.13-.65.18s-.55.08-.83.08c-.43,0-.82-.07-1.17-.22s-.63-.4-.83-.76-.31-.85-.31-1.49v-4.45h-1.1v-.67l1.15-.53.51-1.7h.89v1.79h2.28v1.11h-2.28v4.43c0,.44.11.78.32,1s.5.33.86.33h0Z"/><path d="M248.13,89.8c.23,0,.43.07.59.2s.25.35.25.65-.08.52-.25.66-.36.2-.59.2-.43-.07-.59-.2-.24-.35-.24-.66.08-.52.24-.65.36-.2.59-.2ZM248.84,92.79v7.89h-1.44v-7.89h1.44Z"/><path d="M254.68,92.64c.69,0,1.28.15,1.77.44s.87.71,1.13,1.24.39,1.16.39,1.89v.82h-5.35c.01.84.23,1.49.65,1.94s1.01.68,1.77.68c.5,0,.95-.05,1.34-.14s.8-.24,1.22-.42v1.21c-.4.18-.79.31-1.19.4-.4.08-.87.13-1.43.13-.76,0-1.43-.15-2.01-.46s-1.02-.76-1.34-1.36-.48-1.34-.48-2.22.15-1.61.44-2.23.7-1.09,1.23-1.42,1.15-.49,1.87-.49h-.01ZM254.67,93.76c-.58,0-1.05.19-1.4.57s-.56.92-.62,1.63h3.88c0-.43-.07-.82-.21-1.15s-.34-.59-.6-.77-.62-.28-1.04-.28h-.01Z"/><path d="M265.42,98.47c0,.51-.13.94-.38,1.29s-.61.61-1.09.79c-.48.18-1.05.26-1.72.26-.55,0-1.03-.04-1.43-.13-.4-.08-.76-.2-1.09-.36v-1.27c.35.17.75.31,1.21.44s.91.19,1.35.19c.62,0,1.06-.1,1.34-.29s.41-.46.41-.79c0-.2-.05-.37-.16-.52s-.3-.3-.58-.45-.67-.32-1.18-.52c-.5-.2-.93-.39-1.28-.59s-.63-.43-.81-.71-.28-.63-.28-1.07c0-.68.27-1.2.82-1.56s1.27-.54,2.17-.54c.48,0,.93.05,1.35.14s.83.23,1.21.4l-.47,1.11c-.34-.15-.7-.27-1.06-.37s-.73-.15-1.11-.15c-.49,0-.87.08-1.13.24s-.39.37-.39.65c0,.21.06.39.18.54s.33.28.61.42.67.3,1.16.48c.48.18.9.37,1.25.57s.62.43.81.72.29.64.29,1.08h0Z"/><path d="M267.37,99.86c0-.36.09-.62.28-.77s.41-.23.67-.23.49.08.68.23.28.41.28.77-.09.61-.28.77-.41.24-.68.24-.49-.08-.67-.24-.28-.42-.28-.77Z"/><path d="M15.42,19.97c6.22,0,10.77,1.34,13.62,4.01,2.86,2.67,4.29,6.35,4.29,11.04,0,2.11-.32,4.13-.96,6.05s-1.68,3.63-3.12,5.13-3.36,2.68-5.76,3.55c-2.4.87-5.36,1.3-8.87,1.3h-4.39v17.15H0V19.97h15.42ZM14.89,28.35h-4.65v14.32h3.36c1.91,0,3.57-.25,4.98-.76s2.5-1.3,3.27-2.38,1.15-2.46,1.15-4.16c0-2.38-.66-4.14-1.98-5.29s-3.36-1.73-6.14-1.73h.01Z"/><path d="M46.69,16.87c1.5,0,2.78.35,3.86,1.04,1.08.69,1.62,1.99,1.62,3.88s-.54,3.16-1.62,3.88c-1.08.71-2.36,1.07-3.86,1.07s-2.81-.36-3.88-1.07-1.6-2.01-1.6-3.88.53-3.18,1.6-3.88c1.07-.69,2.36-1.04,3.88-1.04ZM51.7,31.32v36.88h-10.06V31.32h10.06Z"/><path d="M71.04,68.2l-14.05-36.88h10.52l7.13,21.01c.4,1.23.71,2.53.94,3.89s.39,2.58.48,3.66h.26c.07-1.17.23-2.41.48-3.73.25-1.32.59-2.59,1.01-3.83l7.09-21.01h10.52l-14.05,36.88h-10.33Z"/><path d="M134.21,49.69c0,3.08-.41,5.81-1.24,8.18-.82,2.38-2.02,4.38-3.6,6.02-1.57,1.64-3.46,2.88-5.67,3.71-2.21.84-4.7,1.25-7.47,1.25-2.6,0-4.98-.42-7.14-1.25-2.17-.84-4.05-2.07-5.64-3.71s-2.83-3.65-3.7-6.02c-.87-2.38-1.3-5.1-1.3-8.18,0-4.09.73-7.55,2.18-10.39s3.52-4.99,6.2-6.47c2.68-1.47,5.88-2.21,9.6-2.21,3.45,0,6.52.74,9.19,2.21s4.77,3.63,6.3,6.47c1.53,2.84,2.29,6.3,2.29,10.39h0ZM108.71,49.69c0,2.42.26,4.45.79,6.1.53,1.65,1.35,2.89,2.47,3.73s2.58,1.25,4.39,1.25,3.23-.42,4.34-1.25c1.11-.84,1.92-2.08,2.44-3.73s.78-3.68.78-6.1-.26-4.47-.78-6.09-1.34-2.83-2.46-3.65c-1.12-.81-2.58-1.22-4.39-1.22-2.66,0-4.59.91-5.79,2.74-1.2,1.83-1.8,4.56-1.8,8.21h.01Z"/><path d="M159.42,60.84c1.1,0,2.17-.11,3.22-.33,1.04-.22,2.08-.49,3.12-.82v7.49c-1.08.48-2.41.89-4.01,1.2-1.59.32-3.34.48-5.23.48-2.2,0-4.17-.36-5.92-1.07s-3.12-1.96-4.12-3.73c-1-1.77-1.5-4.24-1.5-7.41v-17.78h-4.82v-4.26l5.54-3.36,2.9-7.79h6.43v7.85h10.33v7.55h-10.33v17.78c0,1.41.4,2.46,1.2,3.15.8.69,1.86,1.04,3.18,1.04h.01Z"/><path d="M206.95,19.97c6.22,0,10.77,1.34,13.62,4.01,2.86,2.67,4.29,6.35,4.29,11.04,0,2.11-.32,4.13-.96,6.05s-1.68,3.63-3.12,5.13-3.36,2.68-5.76,3.55c-2.4.87-5.36,1.3-8.87,1.3h-4.39v17.15h-10.23V19.97h15.42ZM206.43,28.35h-4.65v14.32h3.36c1.91,0,3.57-.25,4.98-.76s2.5-1.3,3.27-2.38,1.15-2.46,1.15-4.16c0-2.38-.66-4.14-1.98-5.29s-3.36-1.73-6.14-1.73h.01Z"/><path d="M247.62,30.56c4.95,0,8.74,1.08,11.38,3.23,2.64,2.16,3.96,5.43,3.96,9.83v24.58h-7.03l-1.95-5.01h-.26c-1.06,1.32-2.13,2.4-3.23,3.23-1.1.84-2.36,1.45-3.79,1.85-1.43.4-3.17.59-5.21.59-2.18,0-4.13-.42-5.86-1.25-1.73-.84-3.08-2.12-4.07-3.84-.99-1.73-1.48-3.92-1.48-6.58,0-3.91,1.37-6.8,4.12-8.66s6.87-2.89,12.37-3.08l6.4-.2v-1.62c0-1.93-.51-3.35-1.52-4.26-1.01-.9-2.42-1.35-4.22-1.35s-3.53.25-5.25.76-3.43,1.14-5.15,1.91l-3.33-6.8c1.96-1.03,4.15-1.85,6.58-2.44s4.94-.89,7.54-.89ZM252.96,51.11l-3.89.13c-3.26.09-5.52.67-6.78,1.75s-1.9,2.5-1.9,4.26c0,1.54.45,2.63,1.35,3.28.9.65,2.08.97,3.53.97,2.16,0,3.98-.64,5.46-1.91,1.48-1.28,2.23-3.09,2.23-5.44v-3.04h0Z"/><path d="M290.2,60.84c1.1,0,2.17-.11,3.22-.33,1.04-.22,2.08-.49,3.12-.82v7.49c-1.08.48-2.41.89-4.01,1.2-1.59.32-3.34.48-5.23.48-2.2,0-4.17-.36-5.92-1.07s-3.12-1.96-4.12-3.73c-1-1.77-1.5-4.24-1.5-7.41v-17.78h-4.82v-4.26l5.54-3.36,2.9-7.79h6.43v7.85h10.33v7.55h-10.33v17.78c0,1.41.4,2.46,1.2,3.15.8.69,1.86,1.04,3.18,1.04h.01Z"/><path d="M315.41,16.87v10.46c0,1.83-.06,3.56-.18,5.21-.12,1.65-.21,2.82-.28,3.5h.53c.79-1.28,1.73-2.31,2.82-3.1,1.09-.79,2.29-1.37,3.61-1.75,1.32-.37,2.74-.56,4.26-.56,2.66,0,4.98.47,6.96,1.4,1.98.93,3.52,2.4,4.62,4.39s1.65,4.57,1.65,7.74v24.05h-10.06v-21.54c0-2.64-.48-4.63-1.45-5.97-.97-1.34-2.46-2.01-4.49-2.01s-3.62.47-4.78,1.4c-1.17.94-1.99,2.31-2.47,4.12s-.73,4.03-.73,6.65v17.35h-10.06V16.88h10.06-.01Z"/><polygon class="cls-1" points="305.41 11.27 320.93 11.27 320.93 27.05 332.3 15.78 332.3 0 316.57 0 305.41 11.27"/></svg>