<svg width="240" height="60" viewBox="0 0 240 60" fill="none" xmlns="http://www.w3.org/2000/svg">
<g clip-path="url(#clip0_1021_2382)">
<path d="M75.0962 44.7833V14.6263H80.7631V44.7833H75.0962Z" fill="#275E74"/>
<path d="M101.442 44.7833V33.6697C101.442 30.441 99.6704 27.9821 96.2927 27.9821C92.9151 27.9821 90.8435 30.6951 90.8435 33.9238V44.7833H85.6119V23.4978H90.3256L90.6708 26.3827C92.8325 24.275 94.9942 23.1913 97.6813 23.1913C102.703 23.1913 106.726 26.9432 106.726 33.6173V44.7758H101.449L101.442 44.7833Z" fill="#275E74"/>
<path d="M125.198 29.1854C123.682 27.7653 121.955 27.287 119.921 27.287C117.414 27.287 116.026 28.0643 116.026 29.3946C116.026 30.725 117.279 31.5471 120.004 31.719C124.027 31.9806 129.131 32.8849 129.131 38.5277C129.131 42.272 126.061 45.5082 119.959 45.5082C116.581 45.5082 113.211 44.9477 110.096 41.719L112.693 37.9746C114.209 39.6562 117.669 40.9043 120.049 40.9492C122.038 40.994 123.899 39.9552 123.899 38.4081C123.899 36.9432 122.691 36.3378 119.658 36.1659C115.635 35.867 110.832 34.4021 110.832 29.574C110.832 24.7459 115.936 22.9372 119.831 22.9372C123.164 22.9372 125.671 23.58 128.14 25.7399L125.198 29.1854Z" fill="#275E74"/>
<path d="M139.947 17.5561V23.5874H145.831V28.1091H139.902V37.287C139.902 39.3124 141.028 40.3064 142.671 40.3064C143.49 40.3064 144.443 40.0448 145.223 39.6637L146.695 44.1405C145.178 44.7459 143.925 45 142.326 45.0448C137.695 45.2167 134.67 42.586 134.67 37.287V28.1091H130.692V23.5874H134.67V18.1166L139.947 17.5561Z" fill="#275E74"/>
<path d="M166.69 23.5426H171.749V44.7833H166.773L166.51 41.6816C165.302 44.1779 161.969 45.3886 159.59 45.426C153.27 45.4709 148.601 41.5919 148.601 34.1405C148.601 26.6891 153.487 22.9821 159.717 23.0269C162.569 23.0269 165.302 24.3647 166.51 26.4723L166.683 23.5426H166.69ZM153.885 34.1405C153.885 38.1913 156.7 40.6054 160.205 40.6054C168.514 40.6054 168.514 27.7205 160.205 27.7205C156.7 27.7205 153.885 30.0897 153.885 34.1405Z" fill="#275E74"/>
<path d="M190.874 35.9043H182.31V44.7758H176.598V14.6263C181.357 14.6263 186.115 14.5815 190.874 14.5815C205.668 14.5815 205.713 35.9043 190.874 35.9043ZM182.31 30.6951H190.874C198.185 30.6951 198.14 20.0075 190.874 20.0075H182.31V30.6951Z" fill="#275E74"/>
<path d="M211.208 17.5561C211.208 21.6517 204.978 21.6517 204.978 17.5561C204.978 13.4604 211.208 13.4604 211.208 17.5561ZM205.458 23.4604V44.7833H210.735V23.4604H205.458Z" fill="#275E74"/>
<path d="M220.725 14.6712V44.7833H215.493V14.6712H220.725Z" fill="#275E74"/>
<path d="M230.595 14.6712V44.7833H225.364V14.6712H230.595Z" fill="#275E74"/>
<path d="M42.5733 3.49028L36.2984 15.0523C35.3151 16.8685 36.6361 19.0732 38.7077 19.0732H45.0577C45.418 19.0732 45.7407 19.3199 45.8909 19.6936C46.041 20.0747 45.9959 20.5232 45.7633 20.8445L19.9506 56.6218C19.5002 57.2496 19.7705 58.139 20.506 58.3856C23.7411 59.4843 27.2163 60.0523 30.8341 59.9925C47.4145 59.701 60.7675 45.994 60.5798 29.4843C60.4447 17.9447 53.802 7.96711 44.1345 3.01196C43.5715 2.72795 42.881 2.93722 42.5808 3.49028H42.5733Z" fill="url(#paint0_linear_1021_2382)"/>
<path d="M23.696 35.6428C24.334 33.8715 23.013 31.9955 21.1215 31.9955H15.5221C15.1994 31.9955 14.9066 31.8012 14.734 31.4873C14.5689 31.1659 14.5539 30.7698 14.6965 30.441L27.0436 1.61435C27.3964 0.784753 26.7059 -0.119581 25.8127 0.0149477C11.2063 2.16741 0 14.701 0 29.8431C0 40.9193 5.99719 50.5979 14.9367 55.8445C15.5672 56.2182 16.3778 55.9342 16.6255 55.2466L23.696 35.6428Z" fill="url(#paint1_linear_1021_2382)"/>
<path d="M80.1401 55.7175L79.6072 54.559H76.6124L76.0869 55.7175H75.1487L77.6256 50.2093H78.5864L81.0633 55.7175H80.1251H80.1401ZM79.2919 53.7593L78.121 51.1435L76.9501 53.7593H79.2919Z" fill="#275E74"/>
<path d="M87.2031 55.7175H86.385V53.6398C86.385 53.296 86.2949 53.0269 86.1073 52.8251C85.9196 52.6233 85.6644 52.5187 85.3342 52.5187C85.0039 52.5187 84.7562 52.6308 84.5536 52.855C84.3509 53.0792 84.2458 53.3558 84.2458 53.6771V55.71H83.4352V51.8236H84.1783L84.2233 52.3916C84.5911 51.9806 85.0264 51.7713 85.5368 51.7713C86.0472 51.7713 86.43 51.9357 86.7453 52.2646C87.0605 52.5934 87.2181 53.0493 87.2181 53.6248V55.71L87.2031 55.7175Z" fill="#275E74"/>
<path d="M92.0144 54.0807H88.8544C88.8919 54.3722 89.0271 54.6114 89.2522 54.7907C89.4849 54.9701 89.7701 55.0598 90.1229 55.0598C90.3331 55.0598 90.5432 55.0224 90.7609 54.9477C90.9786 54.8729 91.1362 54.7683 91.2563 54.6413L91.7892 55.1495C91.5941 55.3587 91.3464 55.5232 91.0386 55.6353C90.7384 55.7474 90.4231 55.8072 90.1079 55.8072C89.4699 55.8072 88.9595 55.6203 88.5767 55.2466C88.1939 54.8729 88.0063 54.3797 88.0063 53.7519C88.0063 53.1241 88.1939 52.6756 88.5767 52.2945C88.952 51.9208 89.4474 51.7265 90.0554 51.7265C90.7084 51.7265 91.2188 51.9283 91.579 52.3244C91.9393 52.7205 92.0894 53.3034 92.0144 54.0732V54.0807ZM88.8694 53.3931H91.2338C91.2113 53.0942 91.0987 52.8625 90.8885 52.6981C90.6783 52.5336 90.4081 52.4514 90.0779 52.4514C89.7701 52.4514 89.5074 52.5336 89.2898 52.6981C89.0721 52.8625 88.9295 53.0942 88.8694 53.3931Z" fill="#275E74"/>
<path d="M95.2044 51.8311H95.9099L96.8407 54.8804L97.8014 51.8311H98.7096L97.3436 55.7324H96.3978L95.94 54.4395L95.5572 53.0867L95.1669 54.4395L94.709 55.7324H93.7633L92.3897 51.8311H93.3054L94.2661 54.8804L95.1969 51.8311H95.2044Z" fill="#275E74"/>
<path d="M102.057 57.5187H101.247V51.8386H102.012L102.057 52.4664C102.2 52.2422 102.395 52.0628 102.643 51.9432C102.89 51.8161 103.153 51.7564 103.431 51.7564C104.009 51.7564 104.482 51.9507 104.849 52.3318C105.217 52.7055 105.397 53.1913 105.397 53.7818C105.397 54.3722 105.217 54.858 104.857 55.2392C104.497 55.6203 104.024 55.8072 103.431 55.8072C103.161 55.8072 102.898 55.7549 102.643 55.6428C102.388 55.5381 102.192 55.3737 102.057 55.1495V57.5187ZM103.348 55.015C103.709 55.015 104.001 54.9028 104.234 54.6712C104.467 54.4395 104.579 54.1405 104.579 53.7818C104.579 53.423 104.467 53.1166 104.241 52.8924C104.016 52.6682 103.716 52.5486 103.348 52.5486C102.98 52.5486 102.68 52.6682 102.463 52.8999C102.237 53.139 102.125 53.4305 102.125 53.7818C102.125 54.133 102.237 54.4245 102.47 54.6637C102.703 54.9028 102.995 55.015 103.348 55.015Z" fill="#275E74"/>
<path d="M109.368 52.4514L109.39 51.8386H110.179V55.7175H109.405L109.368 55.0897C109.248 55.3289 109.06 55.5082 108.805 55.6353C108.55 55.7623 108.287 55.8221 108.024 55.8221C107.439 55.8221 106.959 55.6502 106.583 55.284C106.208 54.9253 106.02 54.417 106.02 53.7743C106.02 53.1315 106.208 52.6532 106.591 52.2945C106.974 51.9357 107.454 51.7564 108.032 51.7564C108.31 51.7564 108.572 51.8161 108.813 51.9432C109.053 52.0703 109.233 52.2422 109.36 52.4514H109.368ZM108.107 52.4888C107.747 52.4888 107.446 52.6084 107.206 52.8401C106.966 53.0717 106.846 53.3857 106.846 53.7743C106.846 54.1629 106.966 54.4768 107.206 54.7085C107.446 54.9477 107.747 55.0598 108.107 55.0598C108.34 55.0598 108.542 55.015 108.73 54.9178C108.91 54.8206 109.045 54.701 109.143 54.5516C109.24 54.4021 109.3 54.2302 109.345 54.0508C109.39 53.8715 109.39 53.6846 109.345 53.5052C109.3 53.3259 109.233 53.154 109.143 53.0045C109.053 52.855 108.91 52.728 108.73 52.6383C108.55 52.5411 108.34 52.4963 108.107 52.4963V52.4888Z" fill="#275E74"/>
<path d="M111.289 51.8386H112.048L112.1 52.3468C112.325 51.9507 112.708 51.7489 113.248 51.7489C113.646 51.7489 113.962 51.861 114.209 52.0777L113.834 52.7877C113.639 52.6308 113.414 52.5486 113.143 52.5486C112.843 52.5486 112.595 52.6383 112.393 52.8251C112.19 53.012 112.093 53.2735 112.093 53.6099V55.71H111.282V51.8311L111.289 51.8386Z" fill="#275E74"/>
<path d="M117.759 52.4514L117.782 51.8386H118.57V55.7175H117.797L117.759 55.0897C117.639 55.3289 117.452 55.5082 117.197 55.6353C116.941 55.7623 116.679 55.8221 116.416 55.8221C115.83 55.8221 115.35 55.6502 114.975 55.284C114.6 54.9253 114.412 54.417 114.412 53.7743C114.412 53.1315 114.6 52.6532 114.982 52.2945C115.365 51.9357 115.845 51.7564 116.423 51.7564C116.701 51.7564 116.964 51.8161 117.204 51.9432C117.444 52.0703 117.624 52.2422 117.752 52.4514H117.759ZM116.499 52.4888C116.138 52.4888 115.838 52.6084 115.598 52.8401C115.358 53.0717 115.238 53.3857 115.238 53.7743C115.238 54.1629 115.358 54.4768 115.598 54.7085C115.838 54.9477 116.138 55.0598 116.499 55.0598C116.731 55.0598 116.934 55.015 117.121 54.9178C117.302 54.8206 117.437 54.701 117.534 54.5516C117.632 54.4021 117.692 54.2302 117.737 54.0508C117.782 53.8715 117.782 53.6846 117.737 53.5052C117.692 53.3259 117.624 53.154 117.534 53.0045C117.444 52.855 117.302 52.728 117.121 52.6383C116.941 52.5411 116.731 52.4963 116.499 52.4963V52.4888Z" fill="#275E74"/>
<path d="M122.781 50.2167H123.592V55.7175H122.826L122.781 55.1046C122.496 55.568 122.045 55.7997 121.43 55.7997C120.852 55.7997 120.372 55.6203 119.996 55.2541C119.621 54.8954 119.433 54.4021 119.433 53.7743C119.433 53.1465 119.613 52.6383 119.981 52.287C120.349 51.9357 120.822 51.7564 121.407 51.7564C121.663 51.7564 121.925 51.8161 122.195 51.9432C122.458 52.0703 122.653 52.2347 122.773 52.4514V50.2242L122.781 50.2167ZM121.49 52.5187C121.137 52.5187 120.844 52.6308 120.612 52.855C120.379 53.0792 120.259 53.3856 120.259 53.7743C120.259 54.1629 120.379 54.4619 120.612 54.6936C120.844 54.9253 121.137 55.0374 121.49 55.0374C121.843 55.0374 122.128 54.9178 122.368 54.6861C122.608 54.4469 122.728 54.148 122.728 53.7743C122.728 53.4006 122.608 53.1091 122.368 52.87C122.128 52.6308 121.835 52.5187 121.49 52.5187Z" fill="#275E74"/>
<path d="M124.86 51.1435C124.695 51.0538 124.605 50.9118 124.605 50.7025C124.605 50.4933 124.687 50.3438 124.86 50.2616C125.025 50.1794 125.198 50.1794 125.363 50.2616C125.528 50.3438 125.618 50.4933 125.618 50.7025C125.618 50.9118 125.536 51.0613 125.363 51.1435C125.19 51.2257 125.025 51.2332 124.86 51.1435ZM125.513 51.8236H124.702V55.7175H125.513V51.8236Z" fill="#275E74"/>
<path d="M129.544 51.988L129.972 51.4724L130.564 51.9283L130.099 52.4738C130.414 52.8401 130.572 53.2436 130.572 53.6771C130.572 54.0284 130.482 54.3348 130.309 54.5964C130.137 54.858 129.874 55.0523 129.536 55.1868C130.219 55.4185 130.564 55.8371 130.564 56.4499C130.564 56.9507 130.354 57.3393 129.942 57.6158C129.529 57.8924 129.041 58.0344 128.478 58.0344C127.832 58.0344 127.329 57.8774 126.954 57.571C126.586 57.2646 126.406 56.846 126.421 56.3079H127.232C127.224 56.5994 127.337 56.8236 127.585 56.988C127.832 57.1525 128.125 57.2347 128.47 57.2422C128.801 57.2422 129.093 57.1749 129.341 57.0404C129.589 56.9058 129.709 56.704 129.709 56.4499C129.709 56.1958 129.596 55.9716 129.371 55.8296C129.146 55.6876 128.853 55.6129 128.485 55.6129C127.847 55.6129 127.337 55.441 126.954 55.0972C126.571 54.7534 126.376 54.2825 126.376 53.6846C126.376 53.0867 126.586 52.5934 126.999 52.2496C127.412 51.9058 127.907 51.7339 128.485 51.7339C128.921 51.7339 129.273 51.8236 129.536 52.003L129.544 51.988ZM128.493 52.4738C128.133 52.4738 127.832 52.5785 127.577 52.7877C127.329 52.997 127.202 53.2885 127.202 53.6697C127.202 54.0508 127.322 54.3348 127.57 54.5441C127.817 54.7534 128.125 54.858 128.493 54.858C128.861 54.858 129.161 54.7459 129.401 54.5217C129.641 54.2975 129.761 54.0135 129.761 53.6697C129.761 53.3034 129.641 53.012 129.394 52.7952C129.146 52.5785 128.853 52.4738 128.5 52.4738H128.493Z" fill="#275E74"/>
<path d="M134.955 55.7175H134.137V53.5874C134.137 53.2885 134.055 53.0419 133.89 52.8326C133.724 52.6308 133.507 52.5262 133.229 52.5262C132.951 52.5262 132.726 52.6308 132.546 52.8326C132.373 53.0344 132.283 53.2885 132.283 53.58V55.71H131.473V51.8236H132.231L132.283 52.3393C132.388 52.1375 132.539 51.9955 132.741 51.8984C132.936 51.8012 133.154 51.7564 133.379 51.7564C133.995 51.7564 134.4 52.0179 134.603 52.5336C134.888 52.0179 135.331 51.7638 135.939 51.7638C136.472 51.7638 136.877 51.9208 137.162 52.2347C137.447 52.5486 137.59 52.9895 137.59 53.5576V55.7025H136.772V53.5576C136.772 53.2511 136.697 53.0045 136.554 52.8176C136.404 52.6233 136.194 52.5336 135.916 52.5336C135.638 52.5336 135.406 52.6383 135.226 52.8401C135.046 53.0419 134.963 53.2885 134.963 53.58V55.71L134.955 55.7175Z" fill="#275E74"/>
<path d="M140.765 51.1435C140.6 51.0538 140.51 50.9118 140.51 50.7025C140.51 50.4933 140.592 50.3438 140.765 50.2616C140.93 50.1794 141.103 50.1794 141.268 50.2616C141.433 50.3438 141.523 50.4933 141.523 50.7025C141.523 50.9118 141.441 51.0613 141.268 51.1435C141.095 51.2257 140.93 51.2332 140.765 51.1435ZM141.418 51.8236H140.607V55.7175H141.418V51.8236Z" fill="#275E74"/>
<path d="M146.304 55.7175H145.486V53.6398C145.486 53.296 145.396 53.0269 145.208 52.8251C145.021 52.6233 144.766 52.5187 144.435 52.5187C144.105 52.5187 143.857 52.6308 143.655 52.855C143.452 53.0792 143.347 53.3558 143.347 53.6771V55.71H142.536V51.8236H143.279L143.324 52.3916C143.692 51.9806 144.128 51.7713 144.638 51.7713C145.148 51.7713 145.531 51.9357 145.846 52.2646C146.162 52.5934 146.319 53.0493 146.319 53.6248V55.71L146.304 55.7175Z" fill="#275E74"/>
<path d="M149.307 51.8386H150.065L150.117 52.3468C150.342 51.9507 150.725 51.7489 151.266 51.7489C151.663 51.7489 151.979 51.861 152.226 52.0777L151.851 52.7877C151.656 52.6308 151.431 52.5486 151.161 52.5486C150.86 52.5486 150.613 52.6383 150.41 52.8251C150.207 53.012 150.11 53.2735 150.11 53.6099V55.71H149.299V51.8311L149.307 51.8386Z" fill="#275E74"/>
<path d="M155.777 52.4514L155.799 51.8386H156.587V55.7175H155.814L155.777 55.0897C155.657 55.3289 155.469 55.5082 155.214 55.6353C154.959 55.7623 154.696 55.8221 154.433 55.8221C153.848 55.8221 153.367 55.6502 152.992 55.284C152.617 54.9253 152.429 54.417 152.429 53.7743C152.429 53.1315 152.617 52.6532 153 52.2945C153.382 51.9357 153.863 51.7564 154.441 51.7564C154.718 51.7564 154.981 51.8161 155.221 51.9432C155.461 52.0703 155.642 52.2422 155.769 52.4514H155.777ZM154.516 52.4888C154.155 52.4888 153.855 52.6084 153.615 52.8401C153.375 53.0717 153.255 53.3857 153.255 53.7743C153.255 54.1629 153.375 54.4768 153.615 54.7085C153.855 54.9477 154.155 55.0598 154.516 55.0598C154.748 55.0598 154.951 55.015 155.139 54.9178C155.319 54.8206 155.454 54.701 155.552 54.5516C155.649 54.4021 155.709 54.2302 155.754 54.0508C155.799 53.8715 155.799 53.6846 155.754 53.5052C155.709 53.3259 155.642 53.154 155.552 53.0045C155.461 52.855 155.319 52.728 155.139 52.6383C154.959 52.5411 154.748 52.4963 154.516 52.4963V52.4888Z" fill="#275E74"/>
<path d="M158.516 57.5187H157.706V51.8386H158.471L158.516 52.4664C158.659 52.2422 158.854 52.0628 159.102 51.9432C159.35 51.8161 159.612 51.7564 159.89 51.7564C160.468 51.7564 160.941 51.9507 161.309 52.3318C161.676 52.7055 161.856 53.1913 161.856 53.7818C161.856 54.3722 161.676 54.858 161.316 55.2392C160.956 55.6203 160.483 55.8072 159.89 55.8072C159.62 55.8072 159.357 55.7549 159.102 55.6428C158.847 55.5381 158.651 55.3737 158.516 55.1495V57.5187ZM159.807 55.015C160.168 55.015 160.46 54.9028 160.693 54.6712C160.926 54.4395 161.038 54.1405 161.038 53.7818C161.038 53.423 160.926 53.1166 160.701 52.8924C160.475 52.6682 160.175 52.5486 159.807 52.5486C159.44 52.5486 159.139 52.6682 158.922 52.8999C158.696 53.139 158.584 53.4305 158.584 53.7818C158.584 54.133 158.696 54.4245 158.929 54.6637C159.162 54.9028 159.455 55.015 159.807 55.015Z" fill="#275E74"/>
<path d="M162.885 51.1435C162.72 51.0538 162.63 50.9118 162.63 50.7025C162.63 50.4933 162.712 50.3438 162.885 50.2616C163.05 50.1794 163.223 50.1794 163.388 50.2616C163.553 50.3438 163.643 50.4933 163.643 50.7025C163.643 50.9118 163.56 51.0613 163.388 51.1435C163.215 51.2257 163.05 51.2332 162.885 51.1435ZM163.538 51.8236H162.727V55.7175H163.538V51.8236Z" fill="#275E74"/>
<path d="M167.749 50.2167H168.559V55.7175H167.794L167.749 55.1046C167.463 55.568 167.013 55.7997 166.398 55.7997C165.82 55.7997 165.339 55.6203 164.964 55.2541C164.589 54.8954 164.401 54.4021 164.401 53.7743C164.401 53.1465 164.581 52.6383 164.949 52.287C165.317 51.9357 165.79 51.7564 166.375 51.7564C166.63 51.7564 166.893 51.8161 167.163 51.9432C167.426 52.0703 167.621 52.2347 167.741 52.4514V50.2242L167.749 50.2167ZM166.45 52.5187C166.097 52.5187 165.805 52.6308 165.572 52.855C165.339 53.0792 165.219 53.3856 165.219 53.7743C165.219 54.1629 165.339 54.4619 165.572 54.6936C165.805 54.9253 166.097 55.0374 166.45 55.0374C166.803 55.0374 167.088 54.9178 167.328 54.6861C167.568 54.4469 167.689 54.148 167.689 53.7743C167.689 53.4006 167.568 53.1091 167.328 52.87C167.088 52.6308 166.795 52.5187 166.45 52.5187Z" fill="#275E74"/>
<path d="M174.737 50.2167H175.547V55.7175H174.782L174.737 55.1046C174.451 55.568 174.001 55.7997 173.385 55.7997C172.808 55.7997 172.327 55.6203 171.952 55.2541C171.577 54.8954 171.389 54.4021 171.389 53.7743C171.389 53.1465 171.569 52.6383 171.937 52.287C172.305 51.9357 172.778 51.7564 173.363 51.7564C173.618 51.7564 173.881 51.8161 174.151 51.9432C174.414 52.0703 174.609 52.2347 174.729 52.4514V50.2242L174.737 50.2167ZM173.446 52.5187C173.093 52.5187 172.8 52.6308 172.567 52.855C172.335 53.0792 172.215 53.3856 172.215 53.7743C172.215 54.1629 172.335 54.4619 172.567 54.6936C172.8 54.9253 173.093 55.0374 173.446 55.0374C173.798 55.0374 174.084 54.9178 174.324 54.6861C174.564 54.4469 174.684 54.148 174.684 53.7743C174.684 53.4006 174.564 53.1091 174.324 52.87C174.084 52.6308 173.791 52.5187 173.446 52.5187Z" fill="#275E74"/>
<path d="M176.816 51.1435C176.651 51.0538 176.56 50.9118 176.56 50.7025C176.56 50.4933 176.643 50.3438 176.816 50.2616C176.981 50.1794 177.153 50.1794 177.319 50.2616C177.484 50.3438 177.574 50.4933 177.574 50.7025C177.574 50.9118 177.491 51.0613 177.319 51.1435C177.146 51.2257 176.981 51.2332 176.816 51.1435ZM177.469 51.8236H176.658V55.7175H177.469V51.8236Z" fill="#275E74"/>
<path d="M181.522 52.2571L181.064 52.7952C180.801 52.5561 180.456 52.4365 180.036 52.4365C179.78 52.4365 179.578 52.4664 179.435 52.5486C179.285 52.6308 179.21 52.7429 179.21 52.8999C179.21 53.1764 179.495 53.3408 180.058 53.3931C180.276 53.4155 180.471 53.438 180.629 53.4753C180.786 53.5127 180.959 53.565 181.139 53.6472C181.319 53.7294 181.462 53.849 181.559 54.0135C181.657 54.1779 181.702 54.3722 181.702 54.6114C181.702 54.9776 181.544 55.2765 181.244 55.5008C180.944 55.725 180.546 55.8371 180.043 55.8371C179.285 55.8371 178.692 55.5979 178.264 55.1196L178.692 54.5441C179.03 54.9178 179.488 55.1046 180.058 55.1196C180.276 55.1196 180.471 55.0747 180.636 54.9925C180.801 54.9103 180.884 54.7833 180.891 54.6114C180.891 54.4469 180.824 54.3199 180.674 54.2451C180.524 54.1704 180.298 54.1106 179.991 54.0807C178.94 53.9836 178.407 53.5949 178.399 52.9148C178.399 52.5187 178.565 52.2272 178.895 52.0329C179.225 51.8386 179.6 51.7414 180.021 51.7414C180.629 51.7414 181.132 51.9133 181.522 52.2571Z" fill="#275E74"/>
<path d="M185.462 52.2571L185.005 52.7952C184.742 52.5561 184.397 52.4365 183.976 52.4365C183.721 52.4365 183.518 52.4664 183.376 52.5486C183.226 52.6308 183.151 52.7429 183.151 52.8999C183.151 53.1764 183.436 53.3408 183.999 53.3931C184.216 53.4155 184.412 53.438 184.569 53.4753C184.727 53.5127 184.899 53.565 185.08 53.6472C185.26 53.7294 185.402 53.849 185.5 54.0135C185.598 54.1779 185.643 54.3722 185.643 54.6114C185.643 54.9776 185.485 55.2765 185.185 55.5008C184.884 55.725 184.487 55.8371 183.984 55.8371C183.226 55.8371 182.633 55.5979 182.205 55.1196L182.633 54.5441C182.97 54.9178 183.428 55.1046 183.999 55.1196C184.216 55.1196 184.412 55.0747 184.577 54.9925C184.742 54.9103 184.824 54.7833 184.832 54.6114C184.832 54.4469 184.764 54.3199 184.614 54.2451C184.464 54.1704 184.239 54.1106 183.931 54.0807C182.88 53.9836 182.347 53.5949 182.34 52.9148C182.34 52.5187 182.505 52.2272 182.835 52.0329C183.166 51.8386 183.541 51.7414 183.961 51.7414C184.569 51.7414 185.072 51.9133 185.462 52.2571Z" fill="#275E74"/>
<path d="M186.776 52.3318C187.151 51.9507 187.632 51.7564 188.225 51.7564C188.818 51.7564 189.305 51.9507 189.681 52.3318C190.056 52.7205 190.244 53.1988 190.244 53.7743C190.244 54.3498 190.056 54.8356 189.688 55.2167C189.313 55.5979 188.825 55.7848 188.225 55.7848C187.624 55.7848 187.136 55.5979 186.768 55.2167C186.401 54.8356 186.213 54.3572 186.213 53.7743C186.213 53.1913 186.401 52.713 186.768 52.3244L186.776 52.3318ZM188.225 52.5112C187.864 52.5112 187.579 52.6383 187.361 52.8774C187.144 53.1241 187.031 53.423 187.031 53.7818C187.031 54.1405 187.136 54.4395 187.354 54.6786C187.572 54.9178 187.857 55.0374 188.225 55.0374C188.592 55.0374 188.878 54.9178 189.095 54.6786C189.313 54.4395 189.425 54.1405 189.425 53.7818C189.425 53.423 189.313 53.1315 189.088 52.8774C188.863 52.6308 188.577 52.5037 188.225 52.5037V52.5112Z" fill="#275E74"/>
<path d="M191.137 50.2167H191.947V55.7175H191.137V50.2167Z" fill="#275E74"/>
<path d="M195.986 51.8311H196.879L195.228 55.7324H194.334L192.676 51.8311H193.576L194.094 53.0792L194.785 54.8804L195.4 53.2362L195.986 51.8311Z" fill="#275E74"/>
<path d="M201.187 54.0807H198.027C198.065 54.3722 198.2 54.6114 198.425 54.7907C198.658 54.9701 198.943 55.0598 199.296 55.0598C199.506 55.0598 199.716 55.0224 199.934 54.9477C200.151 54.8729 200.309 54.7683 200.429 54.6413L200.962 55.1495C200.767 55.3587 200.519 55.5232 200.211 55.6353C199.911 55.7474 199.596 55.8072 199.281 55.8072C198.643 55.8072 198.132 55.6203 197.75 55.2466C197.367 54.8729 197.179 54.3797 197.179 53.7519C197.179 53.1241 197.367 52.6756 197.75 52.2945C198.125 51.9208 198.62 51.7265 199.228 51.7265C199.881 51.7265 200.392 51.9283 200.752 52.3244C201.112 52.7205 201.262 53.3034 201.187 54.0732V54.0807ZM198.042 53.3931H200.407C200.384 53.0942 200.271 52.8625 200.061 52.6981C199.851 52.5336 199.581 52.4514 199.251 52.4514C198.943 52.4514 198.68 52.5336 198.463 52.6981C198.245 52.8625 198.102 53.0942 198.042 53.3931Z" fill="#275E74"/>
<path d="M204.415 50.8072L205.233 50.7175V51.8386H206.374V52.5411H205.225V54.3871C205.225 54.8132 205.413 55.0224 205.788 55.0224C205.938 55.0224 206.104 54.9776 206.284 54.8879L206.524 55.583C206.261 55.6951 205.998 55.7549 205.743 55.7549C205.315 55.7623 204.985 55.6577 204.76 55.4185C204.527 55.1868 204.415 54.843 204.415 54.3871V52.5411H203.664V51.8386H204.415V50.7997V50.8072Z" fill="#275E74"/>
<path d="M210.299 52.4514L210.322 51.8386H211.11V55.7175H210.337L210.299 55.0897C210.179 55.3289 209.992 55.5082 209.736 55.6353C209.481 55.7623 209.218 55.8221 208.956 55.8221C208.37 55.8221 207.89 55.6502 207.515 55.284C207.139 54.9253 206.952 54.417 206.952 53.7743C206.952 53.1315 207.139 52.6532 207.522 52.2945C207.905 51.9357 208.385 51.7564 208.963 51.7564C209.241 51.7564 209.504 51.8161 209.744 51.9432C209.984 52.0703 210.164 52.2422 210.292 52.4514H210.299ZM209.038 52.4888C208.678 52.4888 208.378 52.6084 208.138 52.8401C207.897 53.0717 207.777 53.3857 207.777 53.7743C207.777 54.1629 207.897 54.4768 208.138 54.7085C208.378 54.9477 208.678 55.0598 209.038 55.0598C209.271 55.0598 209.474 55.015 209.661 54.9178C209.841 54.8206 209.977 54.701 210.074 54.5516C210.172 54.4021 210.232 54.2302 210.277 54.0508C210.322 53.8715 210.322 53.6846 210.277 53.5052C210.232 53.3259 210.164 53.154 210.074 53.0045C209.984 52.855 209.841 52.728 209.661 52.6383C209.481 52.5411 209.271 52.4963 209.038 52.4963V52.4888Z" fill="#275E74"/>
<path d="M212.221 50.2167H213.031V52.4439C213.152 52.2272 213.347 52.0628 213.609 51.9357C213.872 51.8161 214.135 51.7489 214.398 51.7489C214.975 51.7489 215.448 51.9282 215.816 52.2795C216.184 52.6308 216.372 53.1315 216.372 53.7668C216.372 54.4021 216.184 54.8804 215.809 55.2466C215.433 55.6054 214.96 55.7922 214.375 55.7922C213.76 55.7922 213.309 55.5605 213.024 55.0972L212.979 55.71H212.213V50.2093L212.221 50.2167ZM214.33 52.5187C213.985 52.5187 213.684 52.6383 213.444 52.87C213.204 53.1091 213.084 53.4081 213.084 53.7743C213.084 54.1405 213.204 54.4544 213.444 54.6861C213.684 54.9253 213.977 55.0374 214.33 55.0374C214.683 55.0374 214.968 54.9178 215.208 54.6861C215.448 54.4544 215.561 54.148 215.561 53.7668C215.561 53.3857 215.441 53.0717 215.208 52.8475C214.975 52.6233 214.683 52.5112 214.33 52.5112V52.5187Z" fill="#275E74"/>
<path d="M217.28 50.2167H218.09V55.7175H217.28V50.2167Z" fill="#275E74"/>
<path d="M222.999 54.0807H219.839C219.877 54.3722 220.012 54.6114 220.237 54.7907C220.47 54.9701 220.755 55.0598 221.108 55.0598C221.318 55.0598 221.528 55.0224 221.746 54.9477C221.963 54.8729 222.121 54.7683 222.241 54.6413L222.774 55.1495C222.579 55.3587 222.331 55.5232 222.023 55.6353C221.723 55.7474 221.408 55.8072 221.093 55.8072C220.455 55.8072 219.944 55.6203 219.562 55.2466C219.179 54.8729 218.991 54.3797 218.991 53.7519C218.991 53.1241 219.179 52.6756 219.562 52.2945C219.937 51.9208 220.432 51.7265 221.04 51.7265C221.693 51.7265 222.204 51.9283 222.564 52.3244C222.924 52.7205 223.074 53.3034 222.999 54.0732V54.0807ZM219.854 53.3931H222.219C222.196 53.0942 222.084 52.8625 221.873 52.6981C221.663 52.5336 221.393 52.4514 221.063 52.4514C220.755 52.4514 220.492 52.5336 220.275 52.6981C220.057 52.8625 219.914 53.0942 219.854 53.3931Z" fill="#275E74"/>
<path d="M224.26 50.8072L225.078 50.7175V51.8386H226.219V52.5411H225.071V54.3871C225.071 54.8132 225.258 55.0224 225.634 55.0224C225.784 55.0224 225.949 54.9776 226.129 54.8879L226.369 55.583C226.107 55.6951 225.844 55.7549 225.589 55.7549C225.161 55.7623 224.831 55.6577 224.605 55.4185C224.373 55.1868 224.26 54.843 224.26 54.3871V52.5411H223.51V51.8386H224.26V50.7997V50.8072Z" fill="#275E74"/>
<path d="M229.987 52.2571L229.529 52.7952C229.267 52.5561 228.921 52.4365 228.501 52.4365C228.246 52.4365 228.043 52.4664 227.901 52.5486C227.75 52.6308 227.675 52.7429 227.675 52.8999C227.675 53.1764 227.961 53.3408 228.524 53.3931C228.741 53.4155 228.936 53.438 229.094 53.4753C229.252 53.5127 229.424 53.565 229.604 53.6472C229.785 53.7294 229.927 53.849 230.025 54.0135C230.122 54.1779 230.167 54.3722 230.167 54.6114C230.167 54.9776 230.01 55.2765 229.709 55.5008C229.409 55.725 229.011 55.8371 228.509 55.8371C227.75 55.8371 227.157 55.5979 226.73 55.1196L227.157 54.5441C227.495 54.9178 227.953 55.1046 228.524 55.1196C228.741 55.1196 228.936 55.0747 229.102 54.9925C229.267 54.9103 229.349 54.7833 229.357 54.6114C229.357 54.4469 229.289 54.3199 229.139 54.2451C228.989 54.1704 228.764 54.1106 228.456 54.0807C227.405 53.9836 226.872 53.5949 226.865 52.9148C226.865 52.5187 227.03 52.2272 227.36 52.0329C227.69 51.8386 228.066 51.7414 228.486 51.7414C229.094 51.7414 229.597 51.9133 229.987 52.2571Z" fill="#275E74"/>
<path d="M236.059 22.2571C233.89 22.2571 232.119 20.5007 232.119 18.3333C232.119 16.1659 233.89 14.4096 236.059 14.4096C238.229 14.4096 240 16.1659 240 18.3333C240 20.5007 238.229 22.2571 236.059 22.2571ZM236.059 14.7833C234.093 14.7833 232.494 16.3752 232.494 18.3333C232.494 20.2915 234.093 21.8834 236.059 21.8834C238.026 21.8834 239.625 20.2915 239.625 18.3333C239.625 16.3752 238.026 14.7833 236.059 14.7833Z" fill="#275E74"/>
<path d="M237.583 20.0598L237.643 20.1644H236.953L235.834 18.9013H235.054V20.1644H234.468V16.4948C234.656 16.4948 234.941 16.4948 235.324 16.4948C235.707 16.4948 235.992 16.4948 236.18 16.4948C236.585 16.4948 236.9 16.6144 237.133 16.846C237.358 17.0852 237.478 17.3617 237.478 17.6906C237.478 17.9821 237.395 18.2287 237.23 18.438C237.065 18.6472 236.818 18.7818 236.48 18.8266L237.576 20.0448L237.583 20.0598ZM236.187 17.0404H235.061V18.3707H236.18C236.412 18.3707 236.585 18.3109 236.705 18.1839C236.825 18.0568 236.885 17.8998 236.885 17.7205C236.885 17.5411 236.825 17.3842 236.705 17.2496C236.585 17.1151 236.412 17.0478 236.187 17.0478V17.0404Z" fill="#275E74"/>
</g>
<defs>
<linearGradient id="paint0_linear_1021_2382" x1="6.3875" y1="67.8401" x2="64.1822" y2="9.79775" gradientUnits="userSpaceOnUse">
<stop stop-color="#51BEE7"/>
<stop offset="1" stop-color="#7AC474"/>
</linearGradient>
<linearGradient id="paint1_linear_1021_2382" x1="-7.87365" y1="52.4963" x2="50.9972" y2="-6.63435" gradientUnits="userSpaceOnUse">
<stop stop-color="#51BEE7"/>
<stop offset="1" stop-color="#7AC474"/>
</linearGradient>
<clipPath id="clip0_1021_2382">
<rect width="240" height="60" fill="white"/>
</clipPath>
</defs>
</svg>
