<?xml version="1.0" encoding="UTF-8"?><svg id="Layer_1" xmlns="http://www.w3.org/2000/svg" xmlns:xlink="http://www.w3.org/1999/xlink" viewBox="0 0 494.61 619.83"><defs><style>.cls-1{fill:url(#linear-gradient-13);}.cls-2{fill:#010101;}.cls-3{fill:url(#linear-gradient-2);}.cls-4{fill:url(#linear-gradient-10);}.cls-5{fill:url(#linear-gradient-12);}.cls-6{fill:#fff;}.cls-7{fill:none;}.cls-8{fill:url(#linear-gradient-4);}.cls-9{fill:#33ae73;}.cls-10{fill:#0d4e35;}.cls-11{fill:url(#linear-gradient-3);}.cls-12{fill:url(#linear-gradient-5);}.cls-13{fill:url(#linear-gradient-8);}.cls-14{fill:#197350;}.cls-15{fill:url(#linear-gradient-14);}.cls-16{fill:url(#linear-gradient-7);}.cls-17{fill:url(#linear-gradient-9);}.cls-18{fill:#1a724f;}.cls-19{fill:url(#linear-gradient-11);}.cls-20{fill:url(#linear-gradient-6);}.cls-21{fill:url(#linear-gradient);}.cls-22{clip-path:url(#clippath);}</style><linearGradient id="linear-gradient" x1="277.48" y1="82.02" x2="398.62" y2="82.02" gradientUnits="userSpaceOnUse"><stop offset="0" stop-color="#42ad53"/><stop offset="1" stop-color="#197350"/></linearGradient><linearGradient id="linear-gradient-2" x1="94.81" y1="334.48" x2="215.95" y2="334.48" xlink:href="#linear-gradient"/><linearGradient id="linear-gradient-3" x1="100.81" y1="109.07" x2="149.31" y2="109.07" xlink:href="#linear-gradient"/><linearGradient id="linear-gradient-4" x1="346.38" y1="299.69" x2="394.88" y2="299.69" xlink:href="#linear-gradient"/><linearGradient id="linear-gradient-5" x1="164.99" y1="48.2" x2="280.07" y2="48.2" xlink:href="#linear-gradient"/><linearGradient id="linear-gradient-6" x1="211.38" y1="366.41" x2="326.46" y2="366.41" xlink:href="#linear-gradient"/><linearGradient id="linear-gradient-7" x1="49.41" y1="234.49" x2="133.17" y2="234.49" xlink:href="#linear-gradient"/><linearGradient id="linear-gradient-8" x1="533.14" y1="279.1" x2="616.9" y2="279.1" gradientTransform="translate(979.64 467.66) rotate(-180)" xlink:href="#linear-gradient"/><linearGradient id="linear-gradient-9" x1="133.75" y1="211.73" x2="362.17" y2="211.73" xlink:href="#linear-gradient"/><clipPath id="clippath"><circle class="cls-7" cx="247.96" cy="215.06" r="78.11"/></clipPath><linearGradient id="linear-gradient-10" x1="177.66" y1="260.77" x2="220.63" y2="186.33" gradientUnits="userSpaceOnUse"><stop offset="0" stop-color="#0a8cae"/><stop offset="1" stop-color="#00a7d1"/></linearGradient><linearGradient id="linear-gradient-11" x1="282.46" y1="196.1" x2="319.74" y2="260.66" gradientUnits="userSpaceOnUse"><stop offset="0" stop-color="#98bf1e"/><stop offset="1" stop-color="#85a81b"/></linearGradient><linearGradient id="linear-gradient-12" x1="243.34" y1="157.93" x2="258.77" y2="184.65" xlink:href="#linear-gradient"/><linearGradient id="linear-gradient-13" x1="227.6" y1="194.2" x2="278.9" y2="283.05" xlink:href="#linear-gradient"/><linearGradient id="linear-gradient-14" x1="179.28" y1="272.82" x2="316.64" y2="272.82" gradientUnits="userSpaceOnUse"><stop offset="0" stop-color="#0991b4"/><stop offset=".29" stop-color="#1c8d7d"/><stop offset=".62" stop-color="#1c8152"/><stop offset=".82" stop-color="#599944"/><stop offset=".96" stop-color="#79a534"/><stop offset="1" stop-color="#89ac27" stop-opacity="0"/></linearGradient></defs><path class="cls-18" d="M84.74,427.74l38.32,99.19h9.29v16.92h-46.11v-16.92h9.46l-7.47-22.23h-39.98l-8.29,22.23h11.11v16.92H7.94v-16.92h9.29l40.8-99.19h26.71ZM69.14,445.66c-1,4.48-2.32,9.62-4.15,14.43l-9.95,26.7h27.04l-8.63-25.21c-2.65-7.47-3.32-12.28-3.98-15.93h-.33Z"/><path class="cls-18" d="M194.71,427.74c27.2,0,36.82,15.26,36.82,31.85,0,15.59-12.61,29.19-27.37,30.02v.33c8.46.83,10.95,5.14,20.4,21.4,8.63,14.76,9.62,15.59,15.09,15.59h3.65v16.92h-18.41c-5.64,0-8.29-1.99-12.11-6.3-3.81-4.31-16.09-25.71-19.74-32.18-3.65-6.64-6.8-8.96-10.62-8.96h-6.47v30.52h10.45v16.92h-45.12v-16.92h10.45v-82.27h-11.45v-16.92h54.41ZM189.07,478.5c11.94,0,18.25-5.47,18.25-16.92s-6.3-16.92-19.74-16.92h-11.61v33.84h13.1Z"/><path class="cls-18" d="M316.72,450.65l.8,27.39h-15.96l-.8-13.83h-22.74v24.47h23.4v14.36h-23.4v27.13h23.14l1.06-15.69h15.96l-1.06,29.25h-66.89v-13.56h8.38v-65.95h-9.97v-13.56h68.08Z"/><path class="cls-18" d="M411.65,450.65l.8,26.33h-15.96l-.8-12.77h-16.75v65.95h8.38v13.56h-36.17v-13.56h8.38v-65.95h-16.75l-.8,12.77h-15.96l.8-26.33h84.84Z"/><path class="cls-18" d="M486.51,450.65l.8,27.39h-15.96l-.8-13.83h-22.74v24.47h23.4v14.36h-23.4v27.13h23.14l1.06-15.69h15.96l-1.06,29.25h-66.89v-13.56h8.38v-65.95h-9.97v-13.56h68.08Z"/><path class="cls-14" d="M288.12,77.02h78.73c6.91,0,12.52,5.62,12.52,12.52v32.11s17.2,17.12,17.2,17.12v-49.23c0-8.19-3.33-15.63-8.72-21.01-5.38-5.38-12.81-8.72-21.01-8.71h-78.73c-4.75,0-8.6,3.85-8.6,8.6,0,4.75,3.85,8.6,8.6,8.6Z"/><path class="cls-2" d="M398.62,143.7l-21.29-21.2v-32.96c0-5.78-4.7-10.48-10.48-10.48h-78.73c-5.87,0-10.65-4.78-10.65-10.65,0-2.84,1.11-5.52,3.12-7.53,2.01-2.01,4.68-3.12,7.53-3.12h78.74c8.47,0,16.44,3.31,22.45,9.31,6.01,6.01,9.31,13.98,9.31,22.45v54.16ZM381.43,120.8l13.1,13.05v-44.3c0-7.38-2.88-14.33-8.11-19.56-5.23-5.23-12.18-8.12-19.56-8.12h-78.74c-1.75,0-3.39.68-4.63,1.92-1.24,1.24-1.92,2.88-1.92,4.63,0,3.61,2.94,6.55,6.55,6.55h78.73c8.03,0,14.57,6.54,14.57,14.57v31.26Z"/><path class="cls-18" d="M164.87,67.74l17.2-17.2h-49.74c-8.19,0-15.63,3.33-21.01,8.72-5.38,5.38-8.72,12.81-8.71,21.01v78.73c0,4.75,3.85,8.6,8.6,8.6,4.75,0,8.6-3.85,8.6-8.6v-78.73c0-6.91,5.62-12.52,12.52-12.52h32.55Z"/><path class="cls-2" d="M111.2,169.64c-2.84,0-5.52-1.11-7.53-3.12-2.01-2.01-3.12-4.68-3.12-7.53v-78.73c0-8.47,3.31-16.45,9.31-22.45,6.01-6.01,13.98-9.31,22.45-9.31h54.68s-21.29,21.29-21.29,21.29h-33.39c-5.78,0-10.48,4.7-10.48,10.48v78.73c0,5.87-4.78,10.65-10.65,10.65h0ZM177.12,52.59h-44.8c-7.38,0-14.33,2.88-19.56,8.12-5.23,5.23-8.12,12.18-8.11,19.56v78.73c0,1.75.68,3.4,1.92,4.63,1.24,1.24,2.88,1.92,4.63,1.92h0c3.61,0,6.55-2.94,6.55-6.55v-78.73c0-8.03,6.54-14.57,14.57-14.57h31.7s13.1-13.1,13.1-13.1Z"/><path class="cls-9" d="M317.39,77.02h49.92c16.09,0,29.26,13.16,29.27,29.26v-16.73c0-8.19-3.33-15.63-8.71-21.01-5.38-5.38-12.81-8.72-21.01-8.71h-78.73c-4.75,0-8.6,3.85-8.6,8.6,0,4.75,3.85,8.6,8.6,8.6h29.27Z"/><path class="cls-2" d="M394.53,106.28c0-15-12.22-27.21-27.22-27.21h-79.19c-5.87,0-10.65-4.78-10.65-10.65,0-2.84,1.11-5.52,3.12-7.53,2.01-2.01,4.68-3.12,7.53-3.12h78.74c8.47,0,16.44,3.31,22.45,9.31,6.01,6.01,9.31,13.98,9.31,22.45v16.73h-4.09ZM288.12,61.87c-1.75,0-3.39.68-4.63,1.92-1.24,1.24-1.92,2.88-1.92,4.63,0,3.61,2.94,6.55,6.55,6.55h79.19c11.64,0,21.82,6.39,27.22,15.85v-1.28c0-7.38-2.88-14.33-8.11-19.56-5.23-5.23-12.18-8.12-19.56-8.12h-78.74Z"/><path class="cls-10" d="M288.12,57.77c-2.84,0-5.52,1.11-7.53,3.12-2.01,2.01-3.12,4.69-3.12,7.53,0,5.87,4.78,10.65,10.65,10.65h78.73c5.77,0,10.47,4.7,10.48,10.48v32.96l21.29,21.2v-54.16c0-8.47-3.31-16.45-9.31-22.45-6.01-6.01-13.98-9.31-22.45-9.31h-78.74Z"/><path class="cls-10" d="M205.31,358.73c2.84,0,5.52-1.11,7.53-3.12,2.01-2.01,3.12-4.68,3.12-7.53,0-5.87-4.78-10.65-10.65-10.65h-78.73c-5.78,0-10.48-4.7-10.48-10.48v-32.96s-21.29-21.2-21.29-21.2v54.16c0,8.47,3.31,16.45,9.32,22.46,6.01,6.01,13.98,9.31,22.45,9.31h78.74Z"/><path class="cls-10" d="M111.45,169.64h0c5.87,0,10.65-4.78,10.65-10.65v-78.73c0-5.78,4.7-10.48,10.48-10.48h32.96s21.2-21.29,21.2-21.29h-54.16c-8.47,0-16.45,3.31-22.45,9.32-6.01,6.01-9.32,13.98-9.32,22.45v78.73c0,2.84,1.11,5.52,3.12,7.53,2.01,2.01,4.68,3.12,7.52,3.12Z"/><path class="cls-10" d="M384.23,239.12h0c-5.87,0-10.65,4.78-10.65,10.65v78.73c0,5.78-4.7,10.48-10.48,10.48h-32.95l-21.2,21.29h54.16c8.47,0,16.45-3.31,22.46-9.31,6.01-6.01,9.32-13.98,9.31-22.46v-78.73c0-2.84-1.11-5.52-3.12-7.53-2.01-2.01-4.68-3.12-7.53-3.12Z"/><path class="cls-10" d="M164.99,79.53c.02,2.84,1.16,5.51,3.18,7.5,2.01,1.97,4.65,3.05,7.46,3.05.03,0,.07,0,.1,0,2.84-.02,5.51-1.16,7.5-3.19l55.17-56.17c4.05-4.12,10.7-4.18,14.82-.13l23.51,23.09,30.04-.33-38.64-37.95c-6.05-5.94-14.13-9.17-22.55-9.09-8.5.08-16.44,3.45-22.38,9.49l-55.17,56.17c-1.99,2.03-3.08,4.71-3.05,7.56Z"/><path class="cls-10" d="M326.46,335.07c-.03-2.84-1.16-5.51-3.19-7.5-4.19-4.11-10.94-4.05-15.06.13l-55.17,56.17c-4.05,4.12-10.7,4.18-14.82.13l-23.51-23.09-30.05.33,38.64,37.95c5.98,5.87,13.87,9.09,22.25,9.09.1,0,.19,0,.29,0,8.49-.08,16.44-3.45,22.38-9.49l55.17-56.17c1.99-2.03,3.08-4.71,3.05-7.56Z"/><path class="cls-10" d="M122.52,292.03s.07,0,.1,0c2.84-.02,5.51-1.16,7.5-3.19,1.99-2.03,3.07-4.71,3.05-7.56-.02-2.84-1.16-5.51-3.18-7.5l-56.17-55.17c-4.12-4.05-4.18-10.7-.13-14.82l23.09-23.51-.33-30.04-37.95,38.64c-5.94,6.04-9.16,14.05-9.09,22.55.08,8.5,3.45,16.44,9.49,22.38l56.17,55.17c2.01,1.97,4.65,3.05,7.46,3.05Z"/><path class="cls-21" d="M288.12,79.07h79.19c15,0,31.31,12.2,31.31,27.21h0v-16.73c0-8.47-3.31-16.45-9.31-22.45-6.01-6.01-13.98-9.31-22.45-9.31h-78.74c-2.84,0-5.52,1.11-7.53,3.12-2.01,2.01-3.12,4.69-3.12,7.53,0,5.87,4.78,10.65,10.65,10.65Z"/><path class="cls-3" d="M215.95,348.09c0-5.87-4.78-10.65-10.65-10.65h-79.18c-15,0-31.31-12.2-31.32-27.21h0s0,0,0,0v16.73c0,8.47,3.31,16.45,9.32,22.46,6.01,6.01,13.98,9.31,22.45,9.31h78.74c2.84,0,5.52-1.11,7.53-3.12,2.01-2.01,3.12-4.68,3.12-7.53Z"/><path class="cls-11" d="M111.45,169.64h0c5.87,0,10.65-4.78,10.65-10.65v-79.18c0-15,12.21-31.31,27.21-31.32h-16.73c-8.47,0-16.45,3.31-22.45,9.31-6.01,6.01-9.32,13.98-9.32,22.45v78.73c0,2.84,1.11,5.52,3.12,7.53,2.01,2.01,4.68,3.12,7.52,3.12Z"/><path class="cls-8" d="M384.23,239.12h0c-5.87,0-10.65,4.78-10.65,10.65v79.18c0,15-12.21,31.31-27.21,31.31v-2.05h0,0v2.05h16.73c8.47,0,16.45-3.31,22.46-9.31,6.01-6.01,9.32-13.98,9.31-22.46v-78.73c0-2.84-1.11-5.52-3.12-7.53-2.01-2.01-4.68-3.12-7.53-3.12Z"/><path class="cls-12" d="M175.63,90.08c2.76,0,5.52-1.06,7.6-3.18l55.49-56.49c10.51-10.7,30.64-13.78,41.35-3.28h0s0,0,0,0c0,0,0,0,0,0l-11.93-11.72c-6.05-5.94-14.13-9.17-22.55-9.09-8.5.08-16.44,3.45-22.38,9.49l-55.17,56.17c-1.99,2.03-3.08,4.71-3.05,7.56.02,2.84,1.16,5.51,3.18,7.5,2.07,2.03,4.77,3.05,7.46,3.05Z"/><path class="cls-20" d="M308.22,327.71l-55.16,56.16-.32.33c-10.51,10.7-30.65,13.78-41.35,3.28h0l1.44-1.46-1.44,1.46h0l11.94,11.72c5.98,5.87,13.87,9.09,22.25,9.09.1,0,.19,0,.29,0,8.49-.08,16.44-3.45,22.38-9.49l55.17-56.17c1.99-2.03,3.08-4.71,3.05-7.56-.03-2.84-1.16-5.51-3.19-7.5-4.19-4.11-10.94-4.05-15.06.13Z"/><path class="cls-16" d="M122.52,292.03s.07,0,.1,0c2.84-.02,5.51-1.16,7.5-3.19,4.11-4.19,4.05-10.94-.14-15.05l-56.49-55.49c-10.7-10.51-13.78-30.65-3.28-41.36h0s0,0,0,0l-11.72,11.93c-5.94,6.04-9.16,14.05-9.09,22.55.08,8.5,3.45,16.44,9.49,22.38l56.17,55.17c2.01,1.97,4.65,3.05,7.46,3.05Z"/><path class="cls-10" d="M373.39,131.02s-.07,0-.1,0c-2.84.02-5.51,1.16-7.5,3.19-1.99,2.03-3.07,4.71-3.05,7.56.02,2.84,1.16,5.51,3.18,7.5l56.17,55.17c4.12,4.05,4.18,10.7.13,14.82l-23.09,23.51.33,30.04,37.95-38.64c5.94-6.04,9.16-14.05,9.09-22.55-.08-8.5-3.45-16.44-9.49-22.38l-56.17-55.17c-2.01-1.97-4.65-3.05-7.46-3.05Z"/><path class="cls-13" d="M373.39,131.02s-.07,0-.1,0c-2.84.02-5.51,1.16-7.5,3.19-4.11,4.19-4.05,10.94.14,15.05l56.49,55.49c10.7,10.51,13.78,30.65,3.28,41.36h0s0,0,0,0l11.72-11.93c5.94-6.04,9.16-14.05,9.09-22.55-.08-8.5-3.45-16.44-9.49-22.38l-56.17-55.17c-2.01-1.97-4.65-3.05-7.46-3.05Z"/><path class="cls-17" d="M247.96,325.94c-62.98,0-114.21-51.23-114.21-114.21s51.24-114.21,114.21-114.21,114.21,51.23,114.21,114.21-51.23,114.21-114.21,114.21ZM247.96,113.75c-54.03,0-97.98,43.96-97.98,97.98s43.96,97.98,97.98,97.98,97.98-43.96,97.98-97.98-43.96-97.98-97.98-97.98Z"/><g class="cls-22"><path class="cls-4" d="M195.76,199.49l7.72,2.05c8.32,0,15.08,6.76,15.08,15.08v30.14c0,3.69-2.97,6.66-6.64,6.66l-1.57-25.14h-1.35v50.33l-15.42-16.88h-10.74c-1.11.17-2.32-.07-3.55,0v-33.44h-1.38l-1.54,25.14c-3.69,0-6.66-2.97-6.66-6.66v-30.14c0-8.32,6.76-15.08,15.1-15.08l7.72-2.05M194.14,198.88c7.14,0,12.93-5.77,12.93-12.91s-5.79-12.93-12.93-12.93-12.93,5.79-12.93,12.93,5.79,12.91,12.93,12.91Z"/><path class="cls-19" d="M306.4,208.44l6.71,1.1c7.22,0,13.08,5.86,13.08,13.08v26.14c0,3.2-2.57,5.78-5.76,5.78l-1.36-21.81h-1.17v29.01h-1.28c-.77.17-1.55-.13-2.3,0-.59.1-1.17-.08-1.59,0-1.09.19-2.2-.19-3.29,0-1.34.23-2.64-.21-3.96,0h-1.28l-9,12.69c-.96.15-2.01-.06-3.08,0v-41.7h-1.19l-1.34,21.81c-3.2,0-5.78-2.57-5.78-5.78v-26.14c0-7.22,5.86-13.08,13.1-13.08l6.69-1.1M305.01,207.23c6.19,0,11.22-5,11.22-11.2s-5.02-11.22-11.22-11.22-11.22,5.02-11.22,11.22,5.02,11.2,11.22,11.2Z"/><path class="cls-5" d="M251.06,186.71c8.52,0,15.44-6.88,15.44-15.41s-6.91-15.44-15.44-15.44-15.44,6.91-15.44,15.44,6.91,15.41,15.44,15.41Z"/><path class="cls-1" d="M262.2,189.87h-9.22l3.05,25.57-3.37,6.34-1.61,3-1.58-3-3.37-6.34,3.05-25.57h-9.22c-9.96,0-18.03,8.06-18.03,18v35.97c0,4.41,3.54,7.95,7.95,7.95l1.84-30.01h1.64v32.69l2.02,35.42c1.47-.09.89.2,2.22,0h11.9l2.02-35.42h1.46l2.02,35.47c.72.05,1.45.08,2.19-.04,1.5-.26,3.02.26,4.52,0,.58-.12,1.38.14,2.19,0,1.04-.17,2.1.23,3.17,0h-.26l2.02-35.42v-32.69h1.61l1.87,30.01c4.38,0,7.92-3.54,7.92-7.95v-35.97c0-9.94-8.06-18-18-18Z"/></g><path class="cls-15" d="M303.71,252.28c-11.99,18.06-32.5,29.99-55.75,29.99s-43.76-11.93-55.75-29.99h-12.93c13.19,24.43,39.02,41.07,68.68,41.07s55.49-16.64,68.68-41.07h-12.93Z"/><path class="cls-6" d="M64.8,575.35l.28,8.04h-3.48l-.28-5.08h-8.98l-.19,26.98h4.09v2.96h-11.7v-2.96h3.57l.19-26.98h-8.97l-.28,5.08h-3.48l.28-8.04h28.95Z"/><path class="cls-6" d="M83.69,592.23c0,.19-.28,10.9-.28,13.07h3.48v2.96h-6.96v-.42c0-1.97.23-3.57.47-4.84h-.09c-1.46,3.95-3.9,5.83-8.08,5.83-4.75,0-7.57-2.49-7.57-6.96,0-5.08,3.81-7.43,14.43-7.43h.94v-1.64c0-4.61-1.65-6.39-5.55-6.39-1.88,0-3.9.38-5.4.99v3.76h-3.48v-5.83c2.68-1.08,5.55-1.88,8.55-1.88,6.72,0,9.54,2.77,9.54,8.79ZM73.07,605.86c4.09,0,6.96-2.96,6.96-8.74h-2.02c-8.7,0-9.49,2.49-9.49,4.7,0,2.4,1.88,4.04,4.56,4.04Z"/><path class="cls-6" d="M98.36,572.11l-.19,33.18h3.86v2.96h-11.19v-2.96h3.48l.19-30.22h-4.7v-2.96h8.55Z"/><path class="cls-6" d="M127.35,596.36v.09h-17.67c.23,6.25,3.43,9.16,9.21,9.16,2.63,0,5.22-.75,7.29-1.83l-.14,3.34c-1.36.75-5.45,1.69-7.99,1.69-7.89,0-12.41-4.42-12.41-12.64,0-7.66,4.37-12.74,11.23-12.74s10.48,4.42,10.48,12.92ZM123.31,593.49c-.05-4.18-2.68-7.1-6.48-7.1s-6.86,2.82-7.14,7.1h13.63Z"/><path class="cls-6" d="M155.74,592.74c0,5.4-.19,11-.19,12.55h3.57v2.96h-10.53v-2.96h3.1c.14-6.77.19-9.63.19-11.37,0-5.08-1.55-7.29-5.5-7.29-4.46,0-7.1,3.2-7.14,8.22l-.14,10.43h3.53v2.96h-10.53v-2.96h3.1l.19-18.33h-3.9v-2.96h7.75c0,2.63,0,2.35-.52,5.36h.1c1.03-3.53,4.7-5.92,8.6-5.92,5.4,0,8.32,2.91,8.32,9.31Z"/><path class="cls-6" d="M170.45,584h7.62v2.96h-7.66l-.14,5.92c-.09,3.95-.05,5.73-.05,7.19,0,2.49.23,5.55,3.48,5.55,2.16,0,3.76-.52,5.03-.99l-.14,3.05c-1.31.61-3.57,1.13-5.45,1.13-3.01,0-6.77-.71-6.77-7.1,0-3.81.19-11.98.19-14.76h-3.85v-2.96h3.9l.19-5.92,3.85-.24-.19,6.16Z"/><path class="cls-6" d="M222.1,576.53v7.42h-3.48v-4.89c-1.31-.61-4.09-1.08-6.77-1.08-8.13,0-12.92,4.98-12.92,13.58,0,9.07,4.75,14.05,13.54,14.05,1.64,0,3.76-.19,5.5-.71v-8.04h-4.04v-2.96h11.37v2.96h-3.67v10.57c-1.79.75-6.16,1.36-9.45,1.36-11.28,0-17.58-5.92-17.58-16.78s6.44-17.25,17.53-17.25c3.67,0,8.04.89,9.96,1.74Z"/><path class="cls-6" d="M235.41,584c0,2.68-.19,10.48-.19,13.96,0,5.03,1.27,7.66,5.36,7.66,4.65,0,7.14-3.1,7.14-10.81v-7.85h-3.81v-2.96h7.75l-.19,21.29h3.38v2.96h-7.19c0-1.41.09-2.77.19-3.29l.33-2.07h-.1c-1.36,3.52-4.65,5.92-8.18,5.92-5.55,0-8.55-2.49-8.55-10.25,0-1.64.05-5.5.19-11.61h-3.9v-2.96h7.76Z"/><path class="cls-6" d="M278.65,592.23c0,.19-.28,10.9-.28,13.07h3.48v2.96h-6.96v-.42c0-1.97.23-3.57.47-4.84h-.09c-1.46,3.95-3.9,5.83-8.08,5.83-4.75,0-7.57-2.49-7.57-6.96,0-5.08,3.81-7.43,14.43-7.43h.94v-1.64c0-4.61-1.65-6.39-5.55-6.39-1.88,0-3.9.38-5.4.99v3.76h-3.48v-5.83c2.68-1.08,5.55-1.88,8.55-1.88,6.72,0,9.54,2.77,9.54,8.79ZM268.02,605.86c4.09,0,6.96-2.96,6.96-8.74h-2.02c-8.7,0-9.49,2.49-9.49,4.7,0,2.4,1.88,4.04,4.56,4.04Z"/><path class="cls-6" d="M303.6,583.95l-.38,3.48c-.75-.24-1.74-.38-2.63-.38-4.42,0-7.19,4.23-7.28,9.02l-.19,9.21h4.09v2.96h-11.37v-2.96h3.43l.19-18.33h-4.14v-2.96h7.99v.47c0,2.49-.33,5.22-.52,7.1h.14c1.41-6.2,4.23-7.99,8.18-7.99.28,0,2.3.24,2.49.38Z"/><path class="cls-6" d="M324.8,592.23c0,.19-.28,10.9-.28,13.07h3.48v2.96h-6.96v-.42c0-1.97.23-3.57.47-4.84h-.09c-1.46,3.95-3.9,5.83-8.08,5.83-4.75,0-7.57-2.49-7.57-6.96,0-5.08,3.81-7.43,14.43-7.43h.94v-1.64c0-4.61-1.65-6.39-5.55-6.39-1.88,0-3.9.38-5.4.99v3.76h-3.48v-5.83c2.68-1.08,5.55-1.88,8.55-1.88,6.72,0,9.54,2.77,9.54,8.79ZM314.18,605.86c4.09,0,6.96-2.96,6.96-8.74h-2.02c-8.7,0-9.49,2.49-9.49,4.7,0,2.4,1.88,4.04,4.56,4.04Z"/><path class="cls-6" d="M355.96,592.74c0,5.4-.19,11-.19,12.55h3.57v2.96h-10.53v-2.96h3.1c.14-6.77.19-9.63.19-11.37,0-5.08-1.55-7.29-5.5-7.29-4.46,0-7.1,3.2-7.14,8.22l-.14,10.43h3.53v2.96h-10.53v-2.96h3.1l.19-18.33h-3.9v-2.96h7.76c0,2.63,0,2.35-.52,5.36h.09c1.03-3.53,4.7-5.92,8.6-5.92,5.4,0,8.32,2.91,8.32,9.31Z"/><path class="cls-6" d="M370.67,584h7.61v2.96h-7.66l-.14,5.92c-.09,3.95-.05,5.73-.05,7.19,0,2.49.23,5.55,3.48,5.55,2.16,0,3.76-.52,5.03-.99l-.14,3.05c-1.32.61-3.57,1.13-5.45,1.13-3.01,0-6.77-.71-6.77-7.1,0-3.81.19-11.98.19-14.76h-3.85v-2.96h3.9l.19-5.92,3.85-.24-.19,6.16Z"/><path class="cls-6" d="M403.34,596.36v.09h-17.67c.23,6.25,3.43,9.16,9.21,9.16,2.63,0,5.22-.75,7.29-1.83l-.14,3.34c-1.36.75-5.45,1.69-7.99,1.69-7.89,0-12.41-4.42-12.41-12.64,0-7.66,4.37-12.74,11.23-12.74s10.48,4.42,10.48,12.92ZM399.29,593.49c-.05-4.18-2.68-7.1-6.48-7.1s-6.86,2.82-7.14,7.1h13.63Z"/><path class="cls-6" d="M429.47,596.36v.09h-17.67c.23,6.25,3.43,9.16,9.21,9.16,2.63,0,5.22-.75,7.29-1.83l-.14,3.34c-1.36.75-5.45,1.69-7.99,1.69-7.9,0-12.41-4.42-12.41-12.64,0-7.66,4.37-12.74,11.23-12.74s10.48,4.42,10.48,12.92ZM425.43,593.49c-.05-4.18-2.68-7.1-6.49-7.1s-6.86,2.82-7.14,7.1h13.63Z"/><path class="cls-6" d="M456.07,572.11l-.19,33.18h3.62v2.96h-7.47c0-1.93.14-3.34.47-4.89l-.09-.09c-1.32,3.52-4.23,5.55-8.13,5.55-5.97,0-10.06-4.46-10.06-11.7,0-8.37,4.84-13.68,12.88-13.68,1.83,0,4.04.38,5.03,1.08l.1-9.45h-4.84v-2.96h8.7ZM445.07,605.62c4.65,0,7.05-3.52,7.05-9.96v-7.94c-1.64-.75-2.77-1.08-4.79-1.08-5.69,0-9.07,3.81-9.07,10.53,0,5.12,2.63,8.46,6.81,8.46Z"/></svg>